<svg xmlns="http://www.w3.org/2000/svg" width="86.008mm" height="76.161mm" viewBox="0 0 3313 2934"
     shape-rendering="geometricPrecision" text-rendering="geometricPrecision" image-rendering="optimizeQuality"
     fill-rule="evenodd" clip-rule="evenodd">
  <path d="M1658 2827v-1h230c345 0 689 1 1033-1 181-1 277-176 187-332l-573-993c-230-397-458-795-689-1192-92-157-293-153-384 5-82 144-166 287-249 431-338 584-676 1169-1013 1753-88 152 14 330 190 330h1268zm0 105h-1400c-130 0-221-65-251-182-17-69-2-134 34-196 174-298 345-596 517-894 294-508 588-1017 881-1525 103-178 328-181 431-4l1023 1769 381 659c102 178-7 370-213 374-44 1-88 0-132 0h-1271v-1zm-173-1437c0 39 0 76 1 113 1 6 13 15 20 15 41 1 82 2 123-2 43-3 64-28 62-66-2-37-25-59-69-60-42-1-85 0-137 0zm0 234c0 42-1 83 1 124 0 7 12 20 19 20 50 0 100 1 150-4 39-3 61-33 60-70-1-36-25-67-62-70-54-3-109 0-168 0zm249-58c75 40 102 93 92 170-9 71-53 122-130 134-54 10-111 9-167 11-52 1-105 0-160 0v-603h64c60 0 120-2 180 1 30 1 61 5 89 14 58 18 92 59 100 119 9 57-5 107-54 142-4 3-7 6-14 12zm300 60c53-4 102 3 149-7 52-10 82-53 84-106 2-49-24-95-75-108-50-13-104-6-160-13v200c0 11 1 14 2 34zm-2 114v139h-117v-601c25 0 50-1 75 0 57 0 115-3 172 3 133 14 221 108 220 230-2 125-93 217-226 229-40 3-80 0-124 0zm-930 573c42-2 80 3 117-4 44-9 67-42 67-87-1-41-26-76-68-83-37-6-75-4-113-6-2 13-3 20-3 27v153zm-91-271c77 4 153 2 227 14 75 11 126 69 134 137 10 76-13 137-85 173-2 1-3 4-4 5 33 46 65 93 103 146-38 0-67 1-96 0-7-1-16-9-22-16-10-13-18-28-28-43-19-28-42-61-42-61s-59 1-96 3v114h-91v-472zm494 236c-2 89 58 154 144 157 83 2 149-63 150-151 1-86-61-153-143-155-85-2-150 62-151 149zm147-237c132 0 240 107 241 239 1 133-106 242-238 242-136 1-244-105-244-239 0-135 106-241 241-242zm-904 219h177c0 59 1 116-1 173 0 10-10 22-18 30-93 87-249 78-337-17-89-97-83-248 14-340 92-88 246-85 334 7 1 1 2 4 4 10-17 16-36 33-56 51-48-37-101-55-161-38-81 22-124 110-98 196 25 80 111 124 190 95 24-8 35-20 36-50 0-14-1-29-1-48h-83v-69zm295-493v-375c-23-2-45-3-69-5v-107h259v107c-22 2-44 3-67 5v376c23 1 44 2 68 3v108h-260v-107c24-2 46-3 69-5zm1490 554c45-5 85-1 123-11 40-9 59-41 60-81 1-39-19-73-58-83-35-9-72-8-108-9-6-1-16 13-16 21-2 52-1 100-1 163zm-1 91v104h-91v-471c83 3 166-12 246 15 83 28 128 101 118 188-9 86-74 148-165 159-34 3-68 3-108 5zm-281-365h88c2 1 5 3 5 5-1 104 5 208-3 310-9 99-89 162-186 161-104-1-182-64-189-166-7-101-2-204-2-309h91c0 61-1 123 0 185 1 42 1 85 7 127 8 48 43 74 91 74s88-27 93-76c6-65 4-131 5-197 1-37 0-74 0-114zm-858-1395c-16 0-26 9-26 31v33h-46v-30c0-50 25-78 73-78s73 28 73 78c0 98-97 134-97 185v7h92v44h-141v-38c0-91 97-107 97-196 0-28-10-36-25-36zm149 199c0 22 10 30 25 30 16 0 25-8 25-30v-168c0-22-9-31-25-31-15 0-25 9-25 31v168zm-49-165c0-50 26-78 74-78s74 28 74 78v161c0 50-26 79-74 79s-74-29-74-79v-161zm210-35c37 0 46-19 53-39h33v310h-49v-237h-37v-34zm189 171v29c0 22 10 30 25 30 16 0 26-8 26-30v-69c0-22-10-30-26-30-15 0-25 8-25 30v10h-46l9-180h129v44h-85l-4 74c9-15 23-23 42-23 36 0 54 26 54 71v69c0 50-24 79-72 79s-73-29-73-79v-25h46zm-740 295h1009v-29h-1009z"/>
</svg>