<svg xmlns="http://www.w3.org/2000/svg" width="165.638mm" height="57.499mm" viewBox="0 0 16568 5751"
     shape-rendering="geometricPrecision" text-rendering="geometricPrecision" image-rendering="optimizeQuality"
     fill-rule="evenodd" clip-rule="evenodd">
  <path d="M12155 3156c0 417-256 1122-1215 1122h-673v-2245h650c399 0 724 115 940 334 195 196 298 469 298 789zm-1164-1629h-1277v3258h1281c505 0 942-174 1265-501 293-298 461-709 461-1128 0-785-541-1629-1730-1629zm-7791 3197l-1408-3168-13-29h-384l-12 30-1354 3168-29 69h570l12-31 1000-2446 1066 2447 13 30h570zm13314-3179h-244l-15 18-1908 2292v-2310h-551v3286h289l15-18 1912-2248v2229h552v-3249zm-10252-1194h-24c-1152 6-2119 825-2119 2120 0 1185 840 1988 1881 2098v613h-1881v569l4253-1v-568h-1836v-619c1005-127 1845-901 1845-2080 0-1330-1003-2126-2119-2132zm-12 583c924 0 1583 687 1583 1535 0 847-659 1534-1583 1534s-1583-687-1583-1534c0-848 659-1535 1583-1535z"/>
  <path d="M12483 214c63 0 107-36 107-97 0-63-48-96-108-96h-71v367h25v-174h47zm-47-171h44c54 0 84 29 84 74 0 47-32 75-80 75h-48v-149zm652-22h-177v367h177v-22h-152v-168h148v-22h-148v-133h152v-22zm627 43c-11-10-53-48-123-48-106 0-191 84-191 190 0 102 82 188 192 188 40 0 85-12 122-45v-32c-37 40-86 55-123 55-74 0-165-56-165-165 0-93 70-169 164-169 48 0 93 21 124 58v-32zm507-21v-22h-215v22h95v345h24v-345h96zm482-27c-107 0-190 84-190 190 0 105 83 188 190 188s190-83 190-188c0-106-83-190-190-190zm0 356c-95 0-165-73-165-166 0-95 70-168 165-168s165 73 165 168c0 93-70 166-165 166zm596-158c63 0 107-36 107-97 0-63-48-96-108-96h-71v367h24v-174h48zm-48-171h45c53 0 84 29 84 74 0 47-32 75-80 75h-49v-149zm693 345h26l-152-378-155 378h27l49-120h156l49 120zm-197-142l70-174 69 174h-139zm559-225h-24v367h24v-189h223v189h24v-367h-24v156h-223v-156zm-1047 959h96c86 0 119-53 119-108 0-92-82-101-127-101h-64v-136h153v-22h-177v367zm24-187h58c22 0 47 0 69 11 30 15 38 40 38 68 0 30-11 50-23 62-24 24-59 24-80 24h-62v-165zm763 187h27l-153-378-154 378h26l49-121h156l49 121zm-196-143l70-173 69 173h-139zm606-31c63 0 107-36 107-97 0-63-48-96-108-96h-71v367h25v-174h47zm-47-171h44c54 0 84 29 84 74 0 46-32 75-80 75h-48v-149z"/>
</svg>