<?xml version="1.0" encoding="utf-8"?><svg xmlns="http://www.w3.org/2000/svg" xmlns:xlink="http://www.w3.org/1999/xlink"><symbol viewBox="0 0 8.425 8.425" id="cocktail"><path d="M6.053.693c-.33.048-.625.196-.854.413l.926.824L6.053.693zm1.779 1.583l-1.238.072.926.824c.188-.252.303-.562.312-.896zm-1.447-.359l.823-.926a1.535 1.535 0 0 0-.895-.313l.072 1.239zm.108 1.863c.33-.047.625-.195.854-.413l-.927-.825.073 1.238zm-.26.015l-.069-1.193-.772.916c.241.167.529.27.841.277zM4.724 2.103h1.203l-.9-.802a1.549 1.549 0 0 0-.303.802zm1.855-.015l1.238-.072a1.553 1.553 0 0 0-.413-.853l-.825.925z"/><path d="M8.421 2.112A2.154 2.154 0 0 0 6.148.088a2.154 2.154 0 0 0-2.022 2.015h.348A1.806 1.806 0 0 1 6.168.434a1.806 1.806 0 0 1 .209 3.606 1.803 1.803 0 0 1-1.146-.33l-.226.265a2.153 2.153 0 0 0 3.416-1.863z"/><path d="M4.34 8.209l-1.105-.324V5.87l2.877-3.413a.136.136 0 0 0 .019-.143.135.135 0 0 0-.121-.078H.133a.133.133 0 0 0-.102.22l2.901 3.441v1.98l-1.13.332a.068.068 0 0 0-.048.075.067.067 0 0 0 .066.056h2.501a.068.068 0 0 0 .066-.057.066.066 0 0 0-.047-.074zM.42 2.504h.596l1.589 2.593L.42 2.504z"/></symbol><symbol viewBox="0 0 262.468 262.469" id="dj"><circle cx="104.722" cy="127.92" r="5.965"/><path d="M26.512 234.631h209.444c14.644 0 26.512-11.868 26.512-26.512V54.35c0-14.639-11.868-26.512-26.512-26.512H26.512C11.866 27.838 0 39.711 0 54.35v153.77c0 14.643 11.871 26.511 26.512 26.511zm39.768-16.342H48.167a5.297 5.297 0 0 1-5.302-5.303 5.301 5.301 0 0 1 5.302-5.302H66.28a5.303 5.303 0 0 1 0 10.605zm173.653-12.381h-15.026v-56.556h15.026v56.556zm-51.615-21.464l1.833-14.892c.502-4.044 3.221-7.224 6.783-8.575l12.738-74.86c-8.44-3.536-14.374-11.873-14.374-21.603 0-12.933 10.49-23.421 23.426-23.421 12.935 0 23.415 10.488 23.415 23.421 0 12.45-9.734 22.53-21.996 23.278l-12.738 74.883c2.703 2.227 4.262 5.737 3.801 9.476l-1.844 14.893c-.663 5.37-5.23 9.3-10.507 9.3-.435 0-.869-.021-1.314-.072-5.811-.72-9.948-6.007-9.223-11.828zM104.722 52.361c41.73 0 75.56 33.829 75.56 75.559 0 41.731-33.829 75.559-75.56 75.559s-75.559-33.828-75.559-75.559c0-41.73 33.829-75.559 75.559-75.559zm-90.14 155.324h18.113a5.302 5.302 0 0 1 0 10.605H14.582a5.303 5.303 0 0 1 0-10.605z"/><path d="M219.066 55.453c5.121 0 9.278 4.156 9.278 9.279s-4.157 9.279-9.278 9.279c-5.127 0-9.279-4.155-9.279-9.279s4.152-9.279 9.279-9.279z"/></symbol><symbol viewBox="0 0 97.75 97.75" id="fb"><path d="M48.875 0C21.882 0 0 21.882 0 48.875S21.882 97.75 48.875 97.75 97.75 75.868 97.75 48.875 75.868 0 48.875 0zm18.646 24.89l-6.76.003c-5.301 0-6.326 2.519-6.326 6.215v8.15h12.641l-.006 12.765H54.436v32.758H41.251V52.023H30.229V39.258h11.022v-9.414c0-10.925 6.675-16.875 16.42-16.875l9.851.015V24.89h-.001z"/></symbol><symbol viewBox="0 0 3313 2934" shape-rendering="geometricPrecision" text-rendering="geometricPrecision" image-rendering="optimizeQuality" fill-rule="evenodd" clip-rule="evenodd" id="ibp"><path d="M1658 2827v-1h230c345 0 689 1 1033-1 181-1 277-176 187-332l-573-993c-230-397-458-795-689-1192-92-157-293-153-384 5-82 144-166 287-249 431-338 584-676 1169-1013 1753-88 152 14 330 190 330h1268zm0 105H258c-130 0-221-65-251-182-17-69-2-134 34-196 174-298 345-596 517-894 294-508 588-1017 881-1525 103-178 328-181 431-4l1023 1769 381 659c102 178-7 370-213 374-44 1-88 0-132 0H1658v-1zm-173-1437c0 39 0 76 1 113 1 6 13 15 20 15 41 1 82 2 123-2 43-3 64-28 62-66-2-37-25-59-69-60-42-1-85 0-137 0zm0 234c0 42-1 83 1 124 0 7 12 20 19 20 50 0 100 1 150-4 39-3 61-33 60-70-1-36-25-67-62-70-54-3-109 0-168 0zm249-58c75 40 102 93 92 170-9 71-53 122-130 134-54 10-111 9-167 11-52 1-105 0-160 0v-603h64c60 0 120-2 180 1 30 1 61 5 89 14 58 18 92 59 100 119 9 57-5 107-54 142-4 3-7 6-14 12zm300 60c53-4 102 3 149-7 52-10 82-53 84-106 2-49-24-95-75-108-50-13-104-6-160-13v200c0 11 1 14 2 34zm-2 114v139h-117v-601c25 0 50-1 75 0 57 0 115-3 172 3 133 14 221 108 220 230-2 125-93 217-226 229-40 3-80 0-124 0zm-930 573c42-2 80 3 117-4 44-9 67-42 67-87-1-41-26-76-68-83-37-6-75-4-113-6-2 13-3 20-3 27v153zm-91-271c77 4 153 2 227 14 75 11 126 69 134 137 10 76-13 137-85 173-2 1-3 4-4 5 33 46 65 93 103 146-38 0-67 1-96 0-7-1-16-9-22-16-10-13-18-28-28-43-19-28-42-61-42-61s-59 1-96 3v114h-91v-472zm494 236c-2 89 58 154 144 157 83 2 149-63 150-151 1-86-61-153-143-155-85-2-150 62-151 149zm147-237c132 0 240 107 241 239 1 133-106 242-238 242-136 1-244-105-244-239 0-135 106-241 241-242zm-904 219h177c0 59 1 116-1 173 0 10-10 22-18 30-93 87-249 78-337-17-89-97-83-248 14-340 92-88 246-85 334 7 1 1 2 4 4 10-17 16-36 33-56 51-48-37-101-55-161-38-81 22-124 110-98 196 25 80 111 124 190 95 24-8 35-20 36-50 0-14-1-29-1-48h-83v-69zm295-493v-375c-23-2-45-3-69-5v-107h259v107c-22 2-44 3-67 5v376c23 1 44 2 68 3v108H974v-107c24-2 46-3 69-5zm1490 554c45-5 85-1 123-11 40-9 59-41 60-81 1-39-19-73-58-83-35-9-72-8-108-9-6-1-16 13-16 21-2 52-1 100-1 163zm-1 91v104h-91v-471c83 3 166-12 246 15 83 28 128 101 118 188-9 86-74 148-165 159-34 3-68 3-108 5zm-281-365h88c2 1 5 3 5 5-1 104 5 208-3 310-9 99-89 162-186 161-104-1-182-64-189-166-7-101-2-204-2-309h91c0 61-1 123 0 185 1 42 1 85 7 127 8 48 43 74 91 74s88-27 93-76c6-65 4-131 5-197 1-37 0-74 0-114zM1393 757c-16 0-26 9-26 31v33h-46v-30c0-50 25-78 73-78s73 28 73 78c0 98-97 134-97 185v7h92v44h-141v-38c0-91 97-107 97-196 0-28-10-36-25-36zm149 199c0 22 10 30 25 30 16 0 25-8 25-30V788c0-22-9-31-25-31-15 0-25 9-25 31v168zm-49-165c0-50 26-78 74-78s74 28 74 78v161c0 50-26 79-74 79s-74-29-74-79V791zm210-35c37 0 46-19 53-39h33v310h-49V790h-37v-34zm189 171v29c0 22 10 30 25 30 16 0 26-8 26-30v-69c0-22-10-30-26-30-15 0-25 8-25 30v10h-46l9-180h129v44h-85l-4 74c9-15 23-23 42-23 36 0 54 26 54 71v69c0 50-24 79-72 79s-73-29-73-79v-25h46zm-740 295h1009v-29H1152z"/></symbol><symbol viewBox="0 0 97.75 97.75" id="insta"><ellipse cx="48.944" cy="48.719" rx="14.465" ry="14.017"/><path d="M71.333 49.501c0 11.981-10.024 21.692-22.389 21.692s-22.389-9.711-22.389-21.692c0-2.147.324-4.221.924-6.18h-6.616v30.427a2.87 2.87 0 0 0 2.863 2.863h50.159a2.871 2.871 0 0 0 2.865-2.863V43.321h-6.341c.599 1.959.924 4.033.924 6.18zM65.332 35.11h8.141a3.25 3.25 0 0 0 3.242-3.242v-7.762a3.25 3.25 0 0 0-3.242-3.243h-8.141a3.25 3.25 0 0 0-3.243 3.243v7.762a3.25 3.25 0 0 0 3.243 3.242z"/><path d="M48.875 0C21.882 0 0 21.882 0 48.875S21.882 97.75 48.875 97.75 97.75 75.868 97.75 48.875 75.868 0 48.875 0zm26.77 84.891H22.106c-5.087 0-9.246-3.765-9.246-9.244V22.105c0-5.481 4.159-9.245 9.246-9.245h53.539c5.086 0 9.246 3.764 9.246 9.245v53.542c0 5.479-4.161 9.244-9.246 9.244z"/></symbol><symbol viewBox="0 0 16568 5751" shape-rendering="geometricPrecision" text-rendering="geometricPrecision" image-rendering="optimizeQuality" fill-rule="evenodd" clip-rule="evenodd" id="ludi"><path d="M12155 3156c0 417-256 1122-1215 1122h-673V2033h650c399 0 724 115 940 334 195 196 298 469 298 789zm-1164-1629H9714v3258h1281c505 0 942-174 1265-501 293-298 461-709 461-1128 0-785-541-1629-1730-1629zM3200 4724L1792 1556l-13-29h-384l-12 30L29 4725l-29 69h570l12-31 1000-2446 1066 2447 13 30h570zm13314-3179h-244l-15 18-1908 2292V1545h-551v3286h289l15-18 1912-2248v2229h552V1545zM6262 351h-24c-1152 6-2119 825-2119 2120 0 1185 840 1988 1881 2098v613H4119v569l4253-1v-568H6536v-619c1005-127 1845-901 1845-2080 0-1330-1003-2126-2119-2132zm-12 583c924 0 1583 687 1583 1535 0 847-659 1534-1583 1534s-1583-687-1583-1534c0-848 659-1535 1583-1535zm6233-720c63 0 107-36 107-97 0-63-48-96-108-96h-71v367h25V214h47zm-47-171h44c54 0 84 29 84 74 0 47-32 75-80 75h-48V43zm652-22h-177v367h177v-22h-152V198h148v-22h-148V43h152V21zm627 43c-11-10-53-48-123-48-106 0-191 84-191 190 0 102 82 188 192 188 40 0 85-12 122-45v-32c-37 40-86 55-123 55-74 0-165-56-165-165 0-93 70-169 164-169 48 0 93 21 124 58V64zm507-21V21h-215v22h95v345h24V43h96zm482-27c-107 0-190 84-190 190 0 105 83 188 190 188s190-83 190-188c0-106-83-190-190-190zm0 356c-95 0-165-73-165-166 0-95 70-168 165-168s165 73 165 168c0 93-70 166-165 166zm596-158c63 0 107-36 107-97 0-63-48-96-108-96h-71v367h24V214h48zm-48-171h45c53 0 84 29 84 74 0 47-32 75-80 75h-49V43zm693 345h26l-152-378-155 378h27l49-120h156l49 120zm-197-142l70-174 69 174h-139zm559-225h-24v367h24V199h223v189h24V21h-24v156h-223V21zm-1047 959h96c86 0 119-53 119-108 0-92-82-101-127-101h-64V635h153v-22h-177v367zm24-187h58c22 0 47 0 69 11 30 15 38 40 38 68 0 30-11 50-23 62-24 24-59 24-80 24h-62V793zm763 187h27l-153-378-154 378h26l49-121h156l49 121zm-196-143l70-173 69 173h-139zm606-31c63 0 107-36 107-97 0-63-48-96-108-96h-71v367h25V806h47zm-47-171h44c54 0 84 29 84 74 0 46-32 75-80 75h-48V635z"/></symbol><symbol viewBox="0 0 47.102 47.101" id="steak"><path d="M36.129 38.904c-4.119 0-8.805-1.506-13.924-4.474-4.114-2.386-8.366-3.146-12.118-3.817-3.833-.688-7.742-1.398-10.076-4.05.247 10.718 12 5.896 23.264 12.425 13.863 8.037 22.357 3.618 23.648-5.812-2.244 3.62-6.003 5.728-10.794 5.728z"/><path d="M11.857 25.083c3.569.578 7.613 1.232 11.679 3.365 4.237 2.221 8.049 3.348 11.331 3.349 2.921 0 5.326-.933 6.957-2.695 1.58-1.708 2.414-4.151 2.414-7.067 0-8.798-9.392-15.956-20.935-15.956-12.99 0-20.439 4.53-20.439 12.429-.001 5.118 3.577 5.699 8.993 6.575zm2.941-14.287c3.254 0 5.892 2.042 5.892 4.559 0 2.518-2.638 4.56-5.892 4.56-3.253 0-5.891-2.042-5.891-4.56 0-2.517 2.638-4.559 5.891-4.559z"/><path d="M23.275 32.583c15.09 8.748 23.827 2.742 23.827-8.428 0-11.17-10.666-20.227-23.827-20.227C10.115 3.929 0 8.65 0 19.821s11.89 6.163 23.275 12.762zm.028-27.505c12.096 0 21.936 7.606 21.936 16.956 0 3.172-.928 5.851-2.68 7.747-1.826 1.973-4.484 3.017-7.691 3.017-3.445 0-7.414-1.166-11.796-3.464-3.921-2.055-7.88-2.696-11.374-3.262-5.494-.891-9.833-1.594-9.833-7.563C1.863 9.973 9.678 5.078 23.303 5.078z"/><ellipse cx="14.798" cy="15.356" rx="2.92" ry="2.26"/></symbol><symbol viewBox="0 0 97.75 97.75" id="trip"><path d="M67.211 46.07c-3.291 0-5.971 2.648-5.982 5.917-.012 3.252 2.681 5.959 5.939 5.967 3.266.01 5.949-2.674 5.947-5.943-.002-3.279-2.65-5.941-5.904-5.941zm0 8.95c-1.686 0-3.043-1.332-3.039-2.983.002-1.716 1.318-3.039 3.02-3.041 1.666-.002 3.031 1.362 3.017 3.021-.02 1.655-1.361 3.003-2.998 3.003zM30.512 37.514c-7.9-.07-14.787 6.523-14.65 14.921.129 7.832 6.584 14.472 14.814 14.4 8.047-.068 14.516-6.641 14.531-14.6a14.646 14.646 0 0 0-14.695-14.721zm.236 23.586c-5.293.242-9.564-3.977-9.555-9.1.01-5.191 4.287-9.162 9.125-9.074 5.023-.006 9.1 4.049 9.086 9.07a9.098 9.098 0 0 1-8.656 9.104z"/><path d="M48.875 0C21.883 0 0 21.883 0 48.875S21.883 97.75 48.875 97.75 97.75 75.867 97.75 48.875 75.867 0 48.875 0zm28.096 67.852c-2.984 1.896-6.283 2.795-9.807 2.814-1.48.01-2.955-.189-4.4-.564-3.522-.914-6.545-2.672-9.035-5.33-.33-.35-.639-.713-.987-1.108l-3.939 5.871-3.873-5.787c-.088.045-.113.051-.131.065a.637.637 0 0 0-.076.082c-3.012 3.556-6.801 5.734-11.414 6.465a17.825 17.825 0 0 1-7.604-.428c-3.533-.971-6.537-2.834-8.963-5.586-2.371-2.688-3.846-5.812-4.398-9.363-.633-3.312.137-6.508.33-7.282.559-2.252 1.531-4.322 2.867-6.225a.718.718 0 0 0 .082-.535c-.545-1.998-1.482-3.816-2.582-5.557-.279-.441-.613-.85-.922-1.275v-.148c.061.008.123.02.184.02 3.697.002 7.396.002 11.094-.004.162 0 .34-.066.479-.154 2.598-1.668 5.367-2.988 8.275-4.016a45.082 45.082 0 0 1 6.424-1.742 51.473 51.473 0 0 1 6.389-.838c5.238-.404 9.426.15 12.211.539 2.053.289 4.064.807 6.051 1.416a41.419 41.419 0 0 1 9.818 4.477c.213.133.5.217.752.217 3.613.016 7.227.01 10.84.014.291 0 .582.031.871.047 0 .07.01.1-.002.117-.168.258-.34.516-.508.775-1.225 1.879-2.273 3.848-2.893 6.021-.066.232-.082.428.076.658 3.219 4.621 4.243 9.693 2.899 15.162-1.181 4.795-3.929 8.533-8.108 11.182z"/><path d="M30.236 46.07c-3.209.006-5.898 2.715-5.891 5.936.008 3.26 2.695 5.941 5.963 5.949 3.248.008 5.939-2.697 5.932-5.965-.01-3.299-2.676-5.926-6.004-5.92zm.075 8.981c-1.723.002-3.051-1.328-3.051-3.061 0-1.701 1.326-3.021 3.043-3.023a3.043 3.043 0 0 1 3.057 3.035c.005 1.672-1.366 3.043-3.049 3.049zM66.902 37.57c-8.019.164-14.295 6.627-14.367 14.622 0 8.121 6.59 14.756 14.682 14.725 8.123-.029 14.682-6.477 14.676-14.688-.004-8.463-6.87-14.825-14.991-14.659zm.66 23.532a9.104 9.104 0 0 1-9.487-9.094c.002-5.154 4.252-9.17 9.112-9.082 5.027-.01 9.099 4.039 9.099 9.061-.001 5.04-4.003 8.935-8.724 9.115z"/><path d="M54.732 38.639c3.248-2.98 7.117-4.543 11.506-4.875-5.209-2.314-10.701-3.299-16.355-3.408-6.424-.125-12.674.822-18.643 3.326 4.463.271 8.383 1.828 11.695 4.838 3.305 3.008 5.242 6.756 5.945 11.166.724-4.358 2.608-8.073 5.852-11.047z"/></symbol><symbol viewBox="0 0 512 512" id="vynil"><path d="M0 122.776v266.449h512V122.776H0zm496.327 250.775H15.673V138.449h480.653v235.102z"/><path d="M107.102 232.49c-12.963 0-23.51 10.547-23.51 23.51s10.547 23.51 23.51 23.51 23.51-10.547 23.51-23.51-10.547-23.51-23.51-23.51zm0 31.347c-4.322 0-7.837-3.515-7.837-7.837s3.515-7.837 7.837-7.837 7.837 3.515 7.837 7.837-3.515 7.837-7.837 7.837zm297.796-78.368c-38.891 0-70.531 31.639-70.531 70.531s31.639 70.531 70.531 70.531 70.531-31.64 70.531-70.531-31.64-70.531-70.531-70.531zm0 125.388c-30.248 0-54.857-24.609-54.857-54.857s24.609-54.857 54.857-54.857 54.857 24.609 54.857 54.857-24.609 54.857-54.857 54.857z"/><path d="M404.898 208.98v15.673c17.285 0 31.347 14.062 31.347 31.347h15.673c0-25.928-21.092-47.02-47.02-47.02zm0 23.51c-12.963 0-23.51 10.547-23.51 23.51s10.547 23.51 23.51 23.51 23.51-10.547 23.51-23.51-10.547-23.51-23.51-23.51zm0 31.347c-4.322 0-7.837-3.515-7.837-7.837s3.515-7.837 7.837-7.837c4.322 0 7.837 3.515 7.837 7.837s-3.515 7.837-7.837 7.837zm-208.98-104.49v193.306h120.163V159.347H195.918zm104.49 177.633h-88.816V175.02h88.816v161.96z"/><path d="M227.61 243.263h15.673v64.982H227.61zm15.677-23.51v-15.998h-15.674v15.998h-8.184v15.673h31.346v-15.673zm25.429-15.998h15.673v64.982h-15.673zm-7.492 72.819v15.673h7.489v15.998h15.674v-15.998h8.184v-15.673zM376.602 151.51h15.673v15.673h-15.673zm40.918 0h15.673v15.673H417.52zm-310.418 33.959c-38.891 0-70.531 31.639-70.531 70.531s31.639 70.531 70.531 70.531 70.531-31.64 70.531-70.531-31.64-70.531-70.531-70.531zm0 125.388c-30.248 0-54.857-24.609-54.857-54.857s24.609-54.857 54.857-54.857 54.857 24.609 54.857 54.857-24.609 54.857-54.857 54.857z"/><path d="M75.755 256H60.082c0 25.928 21.093 47.02 47.02 47.02v-15.673c-17.285 0-31.347-14.062-31.347-31.347zm43.969-104.49h15.673v15.673h-15.673zm-40.918 0h15.673v15.673H78.806zm91.196 169.654l-15.816 15.816H66.57c-3.235-9.121-11.946-15.673-22.162-15.673-12.963 0-23.51 10.547-23.51 23.51s10.547 23.51 23.51 23.51c10.216 0 18.927-6.553 22.162-15.673h94.108l20.407-20.406-11.083-11.084zM44.408 352.653c-4.322 0-7.837-3.515-7.837-7.837 0-4.322 3.515-7.837 7.837-7.837 4.322 0 7.837 3.515 7.837 7.837 0 4.322-3.515 7.837-7.837 7.837zm423.184-31.347c-10.216 0-18.927 6.553-22.162 15.673h-87.615l-15.816-15.817-11.083 11.083 20.407 20.406h94.107v.001c3.235 9.121 11.946 15.673 22.162 15.673 12.963 0 23.51-10.547 23.51-23.51s-10.547-23.509-23.51-23.509zm0 31.347c-4.322 0-7.837-3.515-7.837-7.837 0-4.322 3.515-7.837 7.837-7.837 4.322 0 7.837 3.515 7.837 7.837 0 4.322-3.515 7.837-7.837 7.837z"/></symbol><symbol viewBox="0 0 300 300" id="works"><path d="M63.946 118.649c5.727 0 11.353-.897 16.773-2.625l32.214 32.192 35.279-35.272-32.199-32.227c6.207-19.396 1.107-40.888-13.359-55.349C92.356 15.067 78.647 9.396 64.091 9.396a55.153 55.153 0 0 0-23.605 5.332 3.75 3.75 0 0 0-2.084 2.755 3.783 3.783 0 0 0 1.045 3.291l33.894 33.902a13.124 13.124 0 0 1 3.881 9.339c0 3.531-1.382 6.843-3.881 9.342-4.979 4.994-13.684 4.994-18.672-.013L20.763 39.451a3.778 3.778 0 0 0-3.287-1.048 3.745 3.745 0 0 0-2.755 2.084c-9.958 20.868-5.69 45.858 10.641 62.177 10.304 10.304 24.006 15.985 38.584 15.985zm172.128 62.699a55.09 55.09 0 0 0-16.798 2.635l-35.631-35.634-35.303 35.297 35.641 35.64c-6.194 19.39-1.098 40.876 13.359 55.346 10.301 10.301 24.01 15.973 38.565 15.973a55.17 55.17 0 0 0 23.608-5.335 3.748 3.748 0 0 0 2.084-2.755 3.764 3.764 0 0 0-1.045-3.291l-33.893-33.909a13.116 13.116 0 0 1-3.878-9.327c0-3.528 1.379-6.84 3.884-9.342 4.995-4.998 13.681-4.995 18.666.003l33.899 33.893a3.766 3.766 0 0 0 3.291 1.048 3.756 3.756 0 0 0 2.755-2.084c9.958-20.865 5.693-45.852-10.638-62.174-10.301-10.303-24-15.984-38.566-15.984z"/><path d="M221.571 100.988s5.897 5.165 10.759 2.752c5.495-2.765 20.976 12.497 25.915 16.068.016.012.05.012.108.04l-2.7 2.712c-3.566 3.525-3.563 9.281-.009 12.812a9.08 9.08 0 0 0 12.831 0l21.378-21.35c3.532-3.55 3.535-9.296-.006-12.84-3.528-3.532-9.283-3.532-12.824.003l-3.56 3.557c-2.95-4.063-7.852-10.988-7.23-13.282 2.607-10.047-17.875-33.779-17.875-33.779C197.49 6.823 163.513 7.979 147.349 13.537c-6.488 2.232-5.285 3.646 1.454 4.833 49.04 8.56 55.123 37.48 46.81 48.638-3.197 4.308 1.466 9.509 1.466 9.509l1.753 1.741-82.803 82.788c1.123.677 2.214 1.447 3.176 2.412l13.929 13.916c.946.949 1.719 2.032 2.39 3.154l82.804-82.791 3.243 3.251zm-107.939 68.037c-3.056-3.059-8.257-3.256-11.526-.417l-92.019 82.497c-3.284 2.836-3.467 7.663-.405 10.725l25.064 25.046c3.064 3.062 7.882 2.891 10.715-.375l82.522-92.046c2.823-3.266 2.644-8.449-.421-11.507l-13.93-13.923z"/></symbol></svg>